<svg xmlns="http://www.w3.org/2000/svg" aria-hidden="true" overflow="hidden" style="position:absolute;width:0;height:0">
  <defs>
    <symbol id="icon-arrow" viewBox="0 0 36 32">
      <path d="M1 17.4a2 2 0 0 1 0-2.8L13.9 1.9a2 2 0 1 1 2.8 2.8L5.3 16l11.3 11.3a2 2 0 1 1-2.8 2.8L1 17.4zm35 .6H2.5v-4H36v4z"/>
    </symbol>
    <symbol id="icon-facebook" viewBox="0 0 19 32">
      <path d="M17.6 1.2 13.2 1c-5 0-8 3.2-8 8.2v3.5H1a.7.7 0 0 0-.7.7v5.7a.7.7 0 0 0 .7.7h4v11.4a.7.7 0 0 0 .8.7h5.8a.7.7 0 0 0 .8-.7V19.8h4.1a.7.7 0 0 0 .7-.6l.8-5.7a.7.7 0 0 0-.2-.6.7.7 0 0 0-.6-.2h-4.8V9.8c0-1.4.3-2 2-2h3a.7.7 0 0 0 .8-.8V2a.7.7 0 0 0-.7-.8zm-.8 5.1h-2.3c-3.1 0-3.5 2-3.5 3.5v3.6a.7.7 0 0 0 .7.8h4.8l-.5 4.1h-4.3a.7.7 0 0 0-.7.8v11.3H6.6V19.1a.7.7 0 0 0-.7-.8H1.7v-4.1H6a.7.7 0 0 0 .7-.8V9.2c0-4.2 2.5-6.7 6.6-6.7l3.6.1v3.7z"/>
    </symbol>
    <symbol id="icon-instagram" viewBox="0 0 32 32">
      <path d="M16 9a7 7 0 1 0 0 14 7 7 0 0 0 0-14zm0 12.2a5.2 5.2 0 1 1 0-10.4 5.2 5.2 0 0 1 0 10.4zM22.8 1H9.2A8.3 8.3 0 0 0 1 9.2v13.6A8.3 8.3 0 0 0 9.2 31h13.6a8.3 8.3 0 0 0 8.3-8.3V9.2A8.3 8.3 0 0 0 22.8 1zm6.4 21.9a6.5 6.5 0 0 1-6.4 6.4H9.2a6.5 6.5 0 0 1-6.4-6.4V9.2a6.5 6.5 0 0 1 6.4-6.4h13.6a6.5 6.5 0 0 1 6.4 6.4v13.6zM25.5 8a1.5 1.5 0 1 1-.4-1c.3.2.4.6.4 1z"/>
    </symbol>
    <symbol id="icon-telephone" viewBox="0 0 28 32">
      <path d="m25.7 23-.2-.3C24 21 23 20.1 22 20c-.9-.1-1.7.5-2.6 1l-.9.6a2 2 0 0 1-.3.2c-.6.1-2 .2-2.7-.5a41.7 41.7 0 0 1-6.3-7.9c-.5-.9 0-2.1.2-2.6l.3-.3.8-.8c.8-.6 1.6-1.3 1.7-2.1 0-1-.5-2.3-1.9-4l-.2-.3C9.3 2.3 8 .6 6.1 1a4 4 0 0 0-2 .7l-1 .8-.3.3c-1 .8-3 3.3-1.6 7.8.9 3 2.7 6.3 5.4 9.9L8 22.2c2.8 3.4 5.7 6 8.4 7.6a9 9 0 0 0 4.6 1.4c1.7 0 2.9-.7 3.5-1l.4-.3v-.1l.9-.6a5 5 0 0 0 1.3-1.8c.7-1.7-.6-3.4-1.4-4.4zm.4 4a4 4 0 0 1-1 1.3l-1.2 1c-1.1.7-3.5 1.6-7-.5a35 35 0 0 1-8.4-7.7l-.8-1c-2.7-3.6-4.6-7-5.5-10-1.2-3.7.3-5.7 1.3-6.6l.3-.3.9-.7A4 4 0 0 1 6.3 2c1.2-.2 2.3 1.1 3 2l.2.3C11 6.2 11 7.1 11 7.4c0 .5-.7 1-1.2 1.5h-.1l-.9.8a3 3 0 0 0-.4.5c-.4.8-.9 2.5-.2 3.8a41.9 41.9 0 0 0 6.4 8c.7.7 1.7 1 2.6 1l1.2-.2.5-.2 1-.6.1-.1c.6-.4 1.3-1 1.7-.9.4 0 1.3.5 2.8 2.4l.2.2c.8 1 1.8 2.2 1.3 3.4z"/>
    </symbol>
  </defs>
</svg>
